<svg xmlns="http://www.w3.org/2000/svg" viewBox="0 0 72.24 72.01"><defs><style>.cls-1,.cls-3{fill:#fff;}.cls-1{opacity:0;}.cls-2{fill:#009662;}</style></defs><title>Asset 32</title><g id="Layer_2" data-name="Layer 2"><g id="_6" data-name="6"><rect class="cls-1" y="0.01" width="72" height="72"/><rect class="cls-2" x="0.24" width="72" height="72" rx="36" ry="36"/><path class="cls-3" d="M33,24a1,1,0,1,1-1-1A1,1,0,0,1,33,24Zm7-1a1,1,0,1,0,1,1A1,1,0,0,0,40,23Zm4.08,11.83c2.21,1.07,8.92,4.84,8.92,11v.76a3.82,3.82,0,0,1-3.81,3.81,3.89,3.89,0,0,1-1.07-.15,11.39,11.39,0,0,1-.87,2.52,4.57,4.57,0,0,1-2.63,8.3h-3a4.55,4.55,0,0,1-3.5-1.64,12.15,12.15,0,0,1-1.59.12H36a11.9,11.9,0,0,1-1.59-.12,4.57,4.57,0,0,1-3.51,1.64h-3a4.56,4.56,0,0,1-2.63-8.3,12,12,0,0,1-.88-2.52,3.81,3.81,0,0,1-4.87-3.66V45.9c0-6.21,6.7-10,8.91-11A10.61,10.61,0,0,1,26.22,24a5.33,5.33,0,1,1,7.36-6.69,10.28,10.28,0,0,1,5.32,0A5.33,5.33,0,1,1,46.26,24a10.66,10.66,0,0,1-2.18,10.86ZM30.9,33a5.34,5.34,0,1,0,8.24-4.47A3,3,0,0,1,37,30.55V35a1.52,1.52,0,0,0,.76-1.31h1.53a3,3,0,1,1-6.1,0h1.52A1.51,1.51,0,0,0,35.48,35V30.55a3,3,0,0,1-2.15-2.07A5.33,5.33,0,0,0,30.9,33Zm5.34-3.81a1.53,1.53,0,0,0,1.5-1.31,5.34,5.34,0,0,0-1.5-.22,5.28,5.28,0,0,0-1.5.22,1.51,1.51,0,0,0,1.5,1.31Zm7.62-13.72a3.84,3.84,0,0,0-3.52,2.35,10.73,10.73,0,0,1,5.3,4.82,3.8,3.8,0,0,0-1.78-7.17Zm-19,3.81a3.79,3.79,0,0,0,2,3.36,10.77,10.77,0,0,1,5.3-4.82,3.8,3.8,0,0,0-7.32,1.46Zm11.43-.76A9.14,9.14,0,0,0,29.42,33.7c0-.25,0-.5,0-.75a6.86,6.86,0,1,1,13.71,0,6.28,6.28,0,0,1,0,.75,9.14,9.14,0,0,0-6.81-15.23ZM30.9,59.62a3,3,0,1,0,0-6.1h-3a3.05,3.05,0,0,0,0,6.1Zm13.72,0a3,3,0,1,0,0-6.1h-3a3,3,0,0,0,0,6.1ZM51.48,45.9c0-6-7.9-9.62-8.62-9.94-.26.2-.52.4-.79.58a6.84,6.84,0,0,1-11.66,0c-.28-.19-.55-.38-.8-.58-.78.34-8.61,4-8.61,9.93v.76A2.29,2.29,0,0,0,23.28,49a2.31,2.31,0,0,0,.83-.16,10.51,10.51,0,0,1-.06-1.12A12,12,0,0,1,26.82,40L28,41A10.41,10.41,0,0,0,26.6,52.18,4.36,4.36,0,0,1,27.86,52h3a4.58,4.58,0,0,1,4.58,4.57,4.51,4.51,0,0,1-.26,1.48c.26,0,.52,0,.78,0h.48c.26,0,.51,0,.77,0A4.51,4.51,0,0,1,37,56.57,4.58,4.58,0,0,1,41.57,52h3a4.36,4.36,0,0,1,1.26.18A10.47,10.47,0,0,0,44.49,41l1.17-1a12,12,0,0,1,2.77,7.66c0,.37,0,.75-.06,1.12a2.27,2.27,0,0,0,3.11-2.13Z"/></g></g></svg>