<svg xmlns="http://www.w3.org/2000/svg" viewBox="0 0 72 72.11"><defs><style>.cls-1{fill:#009662;}.cls-2,.cls-3{fill:#fff;}.cls-3{opacity:0;}</style></defs><title>Asset 31</title><g id="Layer_2" data-name="Layer 2"><g id="Layer_9" data-name="Layer 9"><rect class="cls-1" y="0.01" width="72" height="72" rx="36" ry="36"/><path class="cls-2" d="M33.78,68.12V54.58a1.2,1.2,0,0,0-1.2-1.2H19a1.2,1.2,0,0,0-1.2,1.2V67.21a36.77,36.77,0,0,0,4.21,2.11H32.58A1.2,1.2,0,0,0,33.78,68.12Zm-2.45-13.3-5.56,5.56-5.53-5.56ZM19.28,56l5.43,5.46-5.43,5.43Zm1.11,11.9,5.38-5.38,5.34,5.38Zm12-.89-5.51-5.55,5.51-5.51ZM42.79,32.91H29.21a1.16,1.16,0,0,0-1.15,1.15V47.64a1.16,1.16,0,0,0,1.15,1.15H42.79a1.16,1.16,0,0,0,1.15-1.15V34.06A1.16,1.16,0,0,0,42.79,32.91ZM41.3,34.29,35.88,39.7l-5.41-5.41ZM29.44,35.38l5.38,5.38-5.38,5.39Zm.85,12,5.59-5.59,5.59,5.59Zm12.27-1-5.62-5.62,5.62-5.62Zm10.38,7H39.4a1.2,1.2,0,0,0-1.2,1.2V68.12a1.2,1.2,0,0,0,1.2,1.2H49.94a35.77,35.77,0,0,0,4.2-2.1V54.58A1.2,1.2,0,0,0,52.94,53.38ZM51.7,54.82l-5.54,5.54-5.53-5.54ZM39.64,56l5.46,5.46-5.46,5.46Zm1.13,11.92,5.39-5.4,5.4,5.4Zm11.93-1-5.48-5.48L52.7,56ZM56,50.4H47V31.07a1.17,1.17,0,0,0-1.17-1.17H26.22a1.17,1.17,0,0,0-1.17,1.17V50.4H16a1.17,1.17,0,0,0-1.17,1.17V65.28c.46.33.93.65,1.4,1V51.8h19V70.9h-8.5A36.14,36.14,0,0,0,36,72.11H36a36.14,36.14,0,0,0,9.25-1.21H36.76V51.8h19V66.25c.48-.31.94-.63,1.4-1V51.57A1.16,1.16,0,0,0,56,50.4ZM26.45,31.3h19.1V50.4H26.45Z"/><rect class="cls-3" width="72" height="72"/></g></g></svg>