<svg xmlns="http://www.w3.org/2000/svg" viewBox="0 0 72 72.01"><defs><style>.cls-1,.cls-3{fill:#fff;}.cls-1{opacity:0;}.cls-2{fill:#009662;}</style></defs><title>Asset 27</title><g id="Layer_2" data-name="Layer 2"><g id="Layer_11" data-name="Layer 11"><rect class="cls-1" width="72" height="72"/><rect class="cls-2" y="0.01" width="72" height="72" rx="36" ry="36"/><path class="cls-3" d="M35.46,9.42l-.21.41c-.94,1.85-4,8.06-4,10.18a4.75,4.75,0,1,0,9.5,0c0-2.12-3.06-8.33-4-10.19A.85.85,0,0,0,36,9.36ZM39.25,20a3.25,3.25,0,1,1-6.5,0c0-1.2,1.55-4.86,3.25-8.33C37.7,15.15,39.25,18.81,39.25,20Zm24.5,14A1.75,1.75,0,0,0,62,32.26H43A1.75,1.75,0,0,0,41.25,34v3.25H39v1.5h2.25v2.5H30.75v-2.5H33v-1.5H30.75V34A1.75,1.75,0,0,0,29,32.26H10A1.75,1.75,0,0,0,8.25,34v3.25H6v1.5H8.25V59.12Q9,60,9.75,60.8V57.73h14.5v5.53H22v1.5h2.25v5.39q.75.25,1.5.48V64.76h20.5v5.87q.75-.22,1.5-.48V64.76H50v-1.5H47.75V57.73h14.5V60.8q.78-.81,1.5-1.68V38.76H66v-1.5H63.75Zm-54,0a.25.25,0,0,1,.25-.25H29a.25.25,0,0,1,.25.25v3.25H9.75Zm14.5,9V56.28H9.75V38.76h19.5v2.5H26A1.75,1.75,0,0,0,24.25,43Zm22,20.25H25.75V49.76h20.5Zm0-15H25.75V43a.25.25,0,0,1,.25-.25H46a.25.25,0,0,1,.25.25Zm16,8H47.75V43A1.75,1.75,0,0,0,46,41.26H42.75v-2.5h19.5Zm0-19H42.75V34a.25.25,0,0,1,.25-.25H62a.25.25,0,0,1,.25.25Z"/></g></g></svg>