<svg xmlns="http://www.w3.org/2000/svg" viewBox="0 0 72 72.01"><defs><style>.cls-1,.cls-3{fill:#fff;}.cls-1{opacity:0;}.cls-2{fill:#009662;}</style></defs><title>Asset 30</title><g id="Layer_2" data-name="Layer 2"><g id="Layer_9" data-name="Layer 9"><rect class="cls-1" width="72" height="72"/><rect class="cls-2" y="0.01" width="72" height="72" rx="36" ry="36"/><path class="cls-3" d="M36.8,47v7.71a1,1,0,0,1-1.93,0V47a1,1,0,0,1,1.93,0Zm0-13.49a1,1,0,1,0-1.93,0v5.78a1,1,0,0,0,1.93,0Zm0-7.71a1,1,0,1,0-1.93,0v1.92a1,1,0,1,0,1.93,0Zm0,44.33V62.42a1,1,0,0,0-1.93,0v7.71a1,1,0,0,0,1.93,0Zm8.63-44.59a1,1,0,1,0-1.85.52L55.06,66.68c.57-.35,1.14-.73,1.69-1.12Zm-28.77,41L28.09,26.06a1,1,0,0,0-1.86-.53L15,65.37C15.52,65.76,16.09,66.14,16.66,66.5Z"/></g></g></svg>