<svg xmlns="http://www.w3.org/2000/svg" viewBox="0 0 72 72.01"><defs><style>.cls-1,.cls-3{fill:#fff;}.cls-1{opacity:0;}.cls-2{fill:#009662;}</style></defs><title>Asset 28</title><g id="Layer_2" data-name="Layer 2"><g id="Layer_10" data-name="Layer 10"><rect class="cls-1" width="72" height="72"/><rect class="cls-2" y="0.01" width="72" height="72" rx="36" ry="36"/><path class="cls-3" d="M60,47.26H49.86A5.1,5.1,0,0,0,54.23,43H58a.73.73,0,0,0,.72-.71v-7a3.27,3.27,0,0,0-1.1-2.49c-1.87-1.68-5.76-1.63-7.1-1.54A23.39,23.39,0,0,0,41,23.05a.73.73,0,0,0-.29,0H19.71c-4.89,0-5.66,9.68-5.71,10.83v8.4a.7.7,0,0,0,.72.71h3.5a5.06,5.06,0,0,0,4.36,4.31H1.68c.17.5.34,1,.53,1.5H60a.75.75,0,0,0,0-1.5ZM49.2,45.93a3.7,3.7,0,1,1,0-7.39,3.7,3.7,0,0,1,0,7.39ZM36.39,24.45h4.13a22.47,22.47,0,0,1,8.29,6.85H36.39Zm-12.46,0H35V31.3h-11Zm-4.22,0h2.83V31.3H15.73C16.3,28.33,17.45,24.45,19.71,24.45ZM15.44,41.52V33.89c0-.33.05-.72.09-1.2H50.25c1.25-.09,4.94-.14,6.43,1.2a1.74,1.74,0,0,1,.62,1.39v6.24h-3a5.09,5.09,0,0,0-10.07,0H28.29a5.09,5.09,0,0,0-10.07,0Zm4.07.72a3.7,3.7,0,1,1,3.7,3.69A3.7,3.7,0,0,1,19.51,42.24Zm8.78.71H44.16a5.06,5.06,0,0,0,4.36,4.31H23.93A5.07,5.07,0,0,0,28.29,43Z"/></g></g></svg>