<svg xmlns="http://www.w3.org/2000/svg" viewBox="0 0 72 72.01"><defs><style>.cls-1{fill:#009662;}.cls-2,.cls-3{fill:#fff;}.cls-3{opacity:0;}</style></defs><title>Asset 29</title><g id="Layer_2" data-name="Layer 2"><g id="Layer_10" data-name="Layer 10"><rect class="cls-1" y="0.01" width="72" height="72" rx="36" ry="36"/><path class="cls-2" d="M39.5,54.19a6.1,6.1,0,0,1-4-1.59,4.32,4.32,0,0,0-6,0,5.8,5.8,0,0,1-8,0,4.32,4.32,0,0,0-6,0A6,6,0,0,1,11,54.15h-.14l-.17,0L10.2,54l-.45-.14-.48-.18c-.17-.07-.34-.16-.51-.25a2.88,2.88,0,0,1-.38-.22,6.39,6.39,0,0,1-.87-.63,4.31,4.31,0,0,0-4.06-1.06c-.22-.46-.42-.92-.62-1.38a5.78,5.78,0,0,1,5.66,1.3,6.34,6.34,0,0,0,.68.51l.19.1a5.12,5.12,0,0,0,.52.27l.22.08.5.15.25,0a4.39,4.39,0,0,0,3.66-1.16,5.8,5.8,0,0,1,8,0,4.32,4.32,0,0,0,6,0,5.8,5.8,0,0,1,8,0,4.32,4.32,0,0,0,6,0,5.8,5.8,0,0,1,8,0,4.72,4.72,0,0,0,2.56,1.2.75.75,0,1,1-.17,1.49,6.3,6.3,0,0,1-3.37-1.55,4.32,4.32,0,0,0-6,0A6.1,6.1,0,0,1,39.5,54.19ZM21,41a1,1,0,1,0-1-1A1,1,0,0,0,21,41Zm40-5a1.25,1.25,0,0,1-.27,1.36L51.77,46.3a4.31,4.31,0,0,0,1.28.36.75.75,0,1,1-.17,1.49,6.3,6.3,0,0,1-3.37-1.55,4.32,4.32,0,0,0-6,0,5.8,5.8,0,0,1-8,0,4.32,4.32,0,0,0-6,0,5.8,5.8,0,0,1-8,0,4.32,4.32,0,0,0-6,0A6,6,0,0,1,11,48.15h-.14l-.17,0L10.2,48l-.45-.14-.48-.18c-.17-.07-.34-.16-.51-.25a2.88,2.88,0,0,1-.38-.22,6.39,6.39,0,0,1-.87-.63,4.32,4.32,0,0,0-6,0c-.15-.5-.3-1-.43-1.53a5.73,5.73,0,0,1,7.4.42,6.34,6.34,0,0,0,.68.51l.19.1a5.12,5.12,0,0,0,.52.27l.22.08.5.15.25,0a4.39,4.39,0,0,0,3.66-1.16,6.32,6.32,0,0,1,3-1.49L15,39.32a2.74,2.74,0,0,1,2.41-4.06h1.17L23.19,26a1.23,1.23,0,0,1,1.12-.69h2.94V21.51a1.25,1.25,0,0,1,1.25-1.25h3a1.25,1.25,0,0,1,1.25,1.15l.85,3.85H43.76a1.24,1.24,0,0,1,1,.46l7.63,9.54h7.43A1.25,1.25,0,0,1,61,36ZM28.75,25.26h3.32l-.78-3.5H28.75Zm-6,5H46.44l-2.8-3.5H24.46Zm-2.5,5H50.44l-2.8-3.5H22Zm39,1.5H17.37a1.22,1.22,0,0,0-1.07.61,1.25,1.25,0,0,0,0,1.24l2.91,5.32a6.34,6.34,0,0,1,3.31,1.53,4.32,4.32,0,0,0,6,0,5.8,5.8,0,0,1,8,0,4.32,4.32,0,0,0,6,0,5.8,5.8,0,0,1,8,0Z"/><rect class="cls-3" width="72" height="72"/></g></g></svg>